PathFileType	4	(X/Y/Z)	c:\Git\powerlifing_model_clean\simulations\HC835B\Session1\HC835B_OGR_0007\marker_experimental.trc
DataRate	CameraRate	NumFrames	NumMarkers	Units	OrigDataRate	OrigDataStartFrame	OrigNumFrames
240.000000	240.000000	5	38	mm	240.000000	83	223
Frame#	Time	RPSI			LPSI			RASI			LASI			RTH1			RTH2			RTH3			RTH4			RSK1			RSK2			RSK3			RSK4			RCAL1			RCAL2			RCAL3			RST			RPT			RTN			RFMB			RSMB			RVMB			RFMH			RSMH			RVMH			RPM			LTH1			LTH2			LTH3			LTH4			LSK1			LSK2			LSK3			LSK4			LCAL1			LCAL2			LCAL3			LFMH			LVMH			
		X1	Y1	Z1	X2	Y2	Z2	X3	Y3	Z3	X4	Y4	Z4	X5	Y5	Z5	X6	Y6	Z6	X7	Y7	Z7	X8	Y8	Z8	X9	Y9	Z9	X10	Y10	Z10	X11	Y11	Z11	X12	Y12	Z12	X13	Y13	Z13	X14	Y14	Z14	X15	Y15	Z15	X16	Y16	Z16	X17	Y17	Z17	X18	Y18	Z18	X19	Y19	Z19	X20	Y20	Z20	X21	Y21	Z21	X22	Y22	Z22	X23	Y23	Z23	X24	Y24	Z24	X25	Y25	Z25	X26	Y26	Z26	X27	Y27	Z27	X28	Y28	Z28	X29	Y29	Z29	X30	Y30	Z30	X31	Y31	Z31	X32	Y32	Z32	X33	Y33	Z33	X34	Y34	Z34	X35	Y35	Z35	X36	Y36	Z36	X37	Y37	Z37	X38	Y38	Z38	

84	0.3458333333333333	506.6745605468751	1206.141723632813	-1023.653625488281	398.4168701171876	1201.817749023438	-1013.151733398438	558.1639404296876	1105.649291992188	-1209.828002929688	326.1785888671876	1131.230712890625	-1204.699951171875	635.4421386718751	866.4231567382815	-1025.545043945313	625.7443847656251	831.9654541015627	-1074.973388671875	624.7831420898439	783.5673828125002	-1013.80712890625	603.8117675781251	751.3399047851564	-1058.519897460938	586.4832153320314	434.184539794922	-716.4788818359376	586.6090087890626	388.4761352539064	-758.0245971679689	582.1666259765626	378.4243469238282	-698.0748901367189	570.4957885742189	335.5015258789063	-738.4085693359376	521.4066162109376	313.8022766113282	-587.9692382812501	478.9840393066407	296.3487854003907	-569.6956176757814	539.9592895507814	287.9097290039063	-550.9503173828126	471.1392517089845	245.6753234863282	-619.0692138671876	565.2456665039064	237.5260772705079	-582.6522216796876	489.834197998047	205.1444702148438	-659.7389526367189	486.4794006347657	168.1706085205078	-657.1323242187501	539.8056030273439	161.4592437744141	-670.3649902343751	565.2847900390626	184.71728515625	-579.6282348632814	471.6014709472657	106.4984359741211	-656.0312500000001	526.3692626953126	93.54895782470705	-663.1542358398439	574.0909423828126	108.6999893188477	-604.1231079101564	512.5005493164064	41.98912811279298	-686.8948974609376	265.7724914550782	861.8249511718752	-1212.47265625	269.7672424316407	874.9736328125002	-1272.007690429688	273.9971923828126	794.0026855468752	-1263.93505859375	293.6176147460938	808.0673828125002	-1320.892333984375	317.9646301269532	372.3399658203126	-1188.513916015625	312.3025512695313	343.6486206054688	-1233.46630859375	321.7934265136719	315.7794189453126	-1193.040893554688	330.9161376953126	290.4172668457032	-1242.189208984375	383.9667053222657	179.8899230957032	-1107.578125	356.4620666503907	139.9540710449219	-1104.0576171875	414.895233154297	143.8345184326172	-1108.589233398438	419.1409301757814	122.9252471923828	-1328.25341796875	317.3244018554688	91.72926330566408	-1287.781005859375	
85	0.35	506.4938354492189	1207.852783203125	-1038.273681640625	398.234832763672	1203.302490234375	-1027.761474609375	557.9680175781251	1107.206909179688	-1223.92333984375	326.0125122070313	1133.11279296875	-1219.1591796875	635.3395385742189	867.6316528320315	-1039.095458984375	626.0933837890626	833.0798339843752	-1088.511108398438	624.7063598632814	784.7420043945315	-1027.271118164063	604.2371826171876	752.4181518554689	-1072.048828125	588.0902099609376	438.6939697265626	-726.8949584960939	587.6412353515626	392.2525939941407	-767.4185180664064	583.8195800781251	383.4714660644532	-707.2507324218751	571.8755493164064	339.9626770019532	-746.3372802734376	522.3311157226564	321.7521667480469	-595.4458618164064	480.157684326172	304.1675109863282	-576.8031005859376	541.5900268554689	297.3228454589844	-557.8720703125001	472.8535156250001	252.0888366699219	-624.7617187500001	567.1071166992189	246.1134185791016	-588.4503784179689	491.865936279297	211.0903625488282	-664.8923950195314	489.0783081054689	174.0966949462891	-661.1964721679689	542.4120483398439	167.7737884521485	-674.3040161132814	567.8664550781251	193.5190582275391	-584.2431030273439	475.0245361328126	112.1517715454102	-658.4432373046876	530.0321044921876	99.85087585449222	-665.4962158203126	577.9925537109376	117.1854553222657	-606.8739013671876	516.7269287109376	47.37963867187501	-687.7054443359376	267.4516906738282	860.8663330078127	-1223.989013671875	270.9114990234376	873.4877929687502	-1283.669311523438	275.6445922851563	792.6118774414065	-1274.998901367188	294.7744140625001	806.3071289062502	-1332.216918945313	318.1251831054688	366.6175231933594	-1209.557250976563	312.5880126953126	340.0248718261719	-1255.32373046875	322.0405578613282	310.4140625000001	-1216.075317382813	331.6786499023438	286.8567810058594	-1266.062377929688	384.435516357422	170.7697906494141	-1135.517944335938	356.7598876953126	130.6360321044922	-1133.806274414063	415.211883544922	134.6815643310547	-1138.049560546875	420.1112365722657	122.893310546875	-1358.364501953125	318.1502380371094	90.14797210693361	-1319.476928710938	
86	0.3541666666666667	506.3626708984376	1209.431396484375	-1052.882446289063	398.1353454589845	1204.690063476563	-1042.306762695313	557.8772583007814	1108.690307617188	-1237.994384765625	325.8587341308594	1134.6162109375	-1233.426147460938	635.2180786132814	868.4896240234377	-1053.029418945313	626.1941528320314	833.883728027344	-1102.456665039063	624.3806152343751	785.5860595703127	-1041.122924804688	604.3867797851564	753.2003173828126	-1086.019409179688	589.5789794921876	443.5122070312501	-737.2799682617189	588.5872802734376	396.1413879394532	-776.7702636718752	585.3641357421876	388.881317138672	-716.2687377929689	572.6929321289064	344.3739624023438	-754.3293457031251	523.2686767578126	329.6142272949219	-602.5999145507814	481.329071044922	312.1183471679688	-583.5537109375001	542.7755126953126	306.1461486816407	-564.6414184570314	474.6246643066407	258.7311401367188	-630.5205078125001	568.9658203125001	254.7445526123047	-594.2230834960939	493.9009399414064	217.1970672607422	-670.0639648437501	491.6945190429689	180.1710662841797	-665.4437255859376	544.9879760742189	174.2723693847657	-678.4788208007814	570.3917236328126	202.2807312011719	-588.9851684570314	478.5548400878907	118.1774826049805	-661.4008789062501	533.7039184570314	106.4807586669922	-668.4068603515626	581.4147338867189	125.5234146118164	-610.1260986328126	521.0811767578126	53.3406105041504	-689.3358764648439	269.0139465332032	859.558044433594	-1235.3603515625	271.9965515136719	871.7644653320315	-1295.098266601563	277.1865539550782	790.9810180664065	-1285.769409179688	295.8708801269532	804.188659667969	-1343.266845703125	315.4426574707032	362.4218444824219	-1229.301147460938	312.8204040527344	336.2811279296876	-1277.12890625	322.4233703613282	305.4345397949219	-1239.10302734375	332.2984313964844	283.6305541992188	-1289.78515625	384.131072998047	161.5617828369141	-1164.348388671875	357.0124816894532	121.9332122802735	-1163.475463867188	415.5722656250001	126.165771484375	-1167.42431640625	421.2351379394532	123.2904129028321	-1388.037353515625	319.0679321289063	88.89183807373048	-1350.785888671875	
87	0.3583333333333333	506.2887268066407	1210.777954101563	-1067.402587890625	398.0535583496095	1205.819946289063	-1056.816284179688	557.9134521484376	1110.033325195313	-1252.067504882813	325.6448059082032	1135.776123046875	-1247.608032226563	635.1015014648439	868.9670410156252	-1067.350463867188	626.0924682617189	834.304870605469	-1116.804077148438	624.4021606445314	786.1706542968752	-1055.48095703125	604.2341308593751	753.6525878906251	-1100.351196289063	590.8737792968751	448.5145568847657	-747.6605834960939	589.5467529296876	400.256317138672	-785.9968872070315	586.7383422851564	394.4962158203126	-725.2701416015626	573.6629028320314	349.0873413085938	-762.2518310546876	524.2746582031251	337.4743347167969	-609.8546752929689	482.5464477539064	319.9236755371094	-590.3618164062501	544.0599975585939	314.9323730468751	-571.4240722656251	476.2557678222657	265.5775451660157	-636.3707885742189	570.6782226562501	263.2945251464844	-600.0687866210939	496.0257568359376	223.1584777832032	-674.3651123046876	494.3060607910157	186.5719299316407	-669.7448120117189	547.7532348632814	181.2432403564453	-682.8812866210939	572.8771362304689	210.9913177490235	-593.9581909179689	482.0033569335939	124.5512313842774	-664.7923583984376	537.3090209960939	113.3362731933594	-671.7414550781251	584.7047119140626	133.9437408447266	-613.8049926757814	525.1577758789064	59.53288650512697	-691.5835571289064	270.3251953125001	857.8602294921877	-1246.468017578125	273.0035095214844	869.5444946289065	-1306.323852539063	278.4454040527344	788.8709716796877	-1296.397338867188	296.9434814453126	801.7940673828127	-1354.001708984375	315.4555053710938	357.1878967285157	-1250.333618164063	313.4772033691407	332.6037902832032	-1299.16064453125	322.7818298339844	300.5346374511719	-1261.997192382813	332.9827270507813	280.7770080566407	-1313.450073242188	384.3823242187501	153.57958984375	-1192.284423828125	357.2734985351563	113.8692779541016	-1193.08349609375	415.859588623047	118.406120300293	-1196.675659179688	422.3897399902345	124.1408920288086	-1417.20458984375	320.1763305664063	88.0658645629883	-1381.763916015625	
88	0.3625	506.1804809570314	1211.828125	-1081.887573242188	397.9941711425782	1206.786865234375	-1071.300170898438	558.0715942382814	1111.296752929688	-1266.104858398438	325.3850708007813	1136.560913085938	-1261.664184570313	634.8868408203126	869.017517089844	-1082.123901367188	625.7150268554689	834.4363403320315	-1131.557250976563	624.1588745117189	786.0881958007815	-1070.2666015625	603.7432861328126	753.7800292968751	-1115.060913085938	591.9852905273439	453.6997680664064	-758.0665283203126	590.5528564453126	404.6061096191407	-795.1948242187502	587.9976196289064	400.3070373535157	-734.2865600585939	574.6761474609376	353.9256896972657	-770.2029418945315	525.3189086914064	345.4406433105469	-617.0720825195314	483.7305297851564	327.8213806152344	-597.2376098632814	545.5281982421876	323.8288574218751	-578.3237304687501	478.0012512207032	272.5745849609376	-642.2445068359376	572.5339965820314	271.8804321289063	-606.1401977539064	498.1055603027345	229.9062042236329	-679.7288818359376	496.9224243164064	193.3030090332032	-674.5848388671876	550.3339843750001	188.3474884033203	-687.6139526367189	575.3608398437501	219.8073730468751	-599.2153320312501	485.2948608398439	131.2408142089844	-668.5042114257814	540.6931152343751	120.4635009765625	-675.3300170898439	588.0972290039064	142.6454162597657	-617.8550415039064	529.2598266601564	66.50367736816408	-694.3624877929689	271.2968139648438	855.8157348632815	-1257.44970703125	273.8657531738282	867.028991699219	-1317.420654296875	279.3632507324219	786.389343261719	-1306.869506835938	297.8781433105469	798.7962646484377	-1364.535278320313	315.5389099121094	352.1866760253907	-1271.0361328125	313.8468933105469	329.5453491210938	-1320.796875	323.0153808593751	296.0255126953126	-1284.67822265625	333.6525268554688	278.2461547851563	-1336.820678710938	384.6671447753907	146.5311584472657	-1219.655639648438	357.5401306152344	106.5310745239258	-1222.50634765625	416.1570739746095	111.4703674316407	-1225.765625	423.7006835937501	125.388786315918	-1445.804321289063	321.3942260742188	87.50620269775392	-1412.085083007813	
